<mxfile host="app.diagrams.net" modified="2021-09-29T08:00:04.117Z" agent="5.0 (Windows)" etag="tOGtEWj6zadEhOond3ip" version="15.3.7" type="github">
  <diagram id="05CP4tNvnR-BLm0faDf4" name="Page-1">
    <mxGraphModel dx="1185" dy="660" grid="1" gridSize="10" guides="1" tooltips="1" connect="1" arrows="1" fold="1" page="1" pageScale="1" pageWidth="827" pageHeight="1169" math="0" shadow="0">
      <root>
        <mxCell id="0" />
        <mxCell id="1" parent="0" />
        <mxCell id="8iDffAJudvt3Z1gJP0nf-2" value="&lt;b&gt;&lt;font face=&quot;Lucida Console&quot;&gt;brower1&lt;/font&gt;&lt;/b&gt;" style="rounded=0;whiteSpace=wrap;html=1;" vertex="1" parent="1">
          <mxGeometry x="80" y="200" width="120" height="40" as="geometry" />
        </mxCell>
        <mxCell id="8iDffAJudvt3Z1gJP0nf-3" value="&lt;font face=&quot;Lucida Console&quot;&gt;&lt;b&gt;h5&lt;/b&gt;/&lt;b&gt;微信小程序&lt;/b&gt;&lt;/font&gt;" style="rounded=0;whiteSpace=wrap;html=1;" vertex="1" parent="1">
          <mxGeometry x="240" y="200" width="120" height="40" as="geometry" />
        </mxCell>
        <mxCell id="8iDffAJudvt3Z1gJP0nf-4" value="&lt;b&gt;&lt;font face=&quot;Lucida Console&quot;&gt;brower2&lt;/font&gt;&lt;/b&gt;" style="rounded=0;whiteSpace=wrap;html=1;" vertex="1" parent="1">
          <mxGeometry x="400" y="200" width="120" height="40" as="geometry" />
        </mxCell>
        <mxCell id="8iDffAJudvt3Z1gJP0nf-10" value="&lt;font face=&quot;Lucida Console&quot;&gt;&lt;b&gt;server&lt;/b&gt;&lt;/font&gt;" style="rounded=0;whiteSpace=wrap;html=1;" vertex="1" parent="1">
          <mxGeometry x="640" y="200" width="120" height="40" as="geometry" />
        </mxCell>
        <mxCell id="8iDffAJudvt3Z1gJP0nf-15" value="" style="endArrow=none;dashed=1;html=1;entryX=0.5;entryY=1;entryDx=0;entryDy=0;" edge="1" parent="1" target="8iDffAJudvt3Z1gJP0nf-2">
          <mxGeometry width="50" height="50" relative="1" as="geometry">
            <mxPoint x="140" y="680" as="sourcePoint" />
            <mxPoint x="180" y="300" as="targetPoint" />
          </mxGeometry>
        </mxCell>
        <mxCell id="8iDffAJudvt3Z1gJP0nf-16" value="" style="endArrow=none;dashed=1;html=1;entryX=0.5;entryY=1;entryDx=0;entryDy=0;" edge="1" parent="1">
          <mxGeometry width="50" height="50" relative="1" as="geometry">
            <mxPoint x="299.58000000000004" y="680" as="sourcePoint" />
            <mxPoint x="299.58000000000004" y="240" as="targetPoint" />
          </mxGeometry>
        </mxCell>
        <mxCell id="8iDffAJudvt3Z1gJP0nf-17" value="" style="endArrow=none;dashed=1;html=1;entryX=0.5;entryY=1;entryDx=0;entryDy=0;" edge="1" parent="1">
          <mxGeometry width="50" height="50" relative="1" as="geometry">
            <mxPoint x="459.58" y="680" as="sourcePoint" />
            <mxPoint x="459.58" y="240" as="targetPoint" />
          </mxGeometry>
        </mxCell>
        <mxCell id="8iDffAJudvt3Z1gJP0nf-18" value="" style="endArrow=none;dashed=1;html=1;entryX=0.5;entryY=1;entryDx=0;entryDy=0;" edge="1" parent="1">
          <mxGeometry width="50" height="50" relative="1" as="geometry">
            <mxPoint x="699.58" y="680" as="sourcePoint" />
            <mxPoint x="699.58" y="240" as="targetPoint" />
          </mxGeometry>
        </mxCell>
        <mxCell id="8iDffAJudvt3Z1gJP0nf-19" value="" style="endArrow=classic;html=1;" edge="1" parent="1">
          <mxGeometry width="50" height="50" relative="1" as="geometry">
            <mxPoint x="140" y="280" as="sourcePoint" />
            <mxPoint x="700" y="280" as="targetPoint" />
          </mxGeometry>
        </mxCell>
        <mxCell id="8iDffAJudvt3Z1gJP0nf-21" value="&lt;font face=&quot;Lucida Console&quot;&gt;start_stamp&lt;/font&gt;请求" style="edgeLabel;html=1;align=center;verticalAlign=middle;resizable=0;points=[];" vertex="1" connectable="0" parent="8iDffAJudvt3Z1gJP0nf-19">
          <mxGeometry x="-0.7351" y="-2" relative="1" as="geometry">
            <mxPoint y="-3" as="offset" />
          </mxGeometry>
        </mxCell>
        <mxCell id="8iDffAJudvt3Z1gJP0nf-22" value="" style="endArrow=classic;html=1;" edge="1" parent="1">
          <mxGeometry width="50" height="50" relative="1" as="geometry">
            <mxPoint x="700" y="300" as="sourcePoint" />
            <mxPoint x="140" y="300" as="targetPoint" />
          </mxGeometry>
        </mxCell>
        <mxCell id="8iDffAJudvt3Z1gJP0nf-23" value="&lt;font face=&quot;Lucida Console&quot;&gt;1.&lt;/font&gt; &lt;font face=&quot;Lucida Console&quot;&gt;start_stamp1&lt;/font&gt;" style="text;html=1;align=center;verticalAlign=middle;resizable=0;points=[];autosize=1;strokeColor=none;fillColor=none;" vertex="1" parent="1">
          <mxGeometry x="10" y="290" width="120" height="20" as="geometry" />
        </mxCell>
        <mxCell id="8iDffAJudvt3Z1gJP0nf-26" value="" style="endArrow=classic;html=1;exitX=1.083;exitY=1.042;exitDx=0;exitDy=0;exitPerimeter=0;" edge="1" parent="1">
          <mxGeometry width="50" height="50" relative="1" as="geometry">
            <mxPoint x="140.66000000000008" y="359.52" as="sourcePoint" />
            <mxPoint x="699" y="360" as="targetPoint" />
          </mxGeometry>
        </mxCell>
        <mxCell id="8iDffAJudvt3Z1gJP0nf-27" value="上报&lt;font face=&quot;Lucida Console&quot;&gt;start_stamp1&lt;/font&gt;" style="edgeLabel;html=1;align=center;verticalAlign=middle;resizable=0;points=[];" vertex="1" connectable="0" parent="8iDffAJudvt3Z1gJP0nf-26">
          <mxGeometry x="-0.7964" y="-2" relative="1" as="geometry">
            <mxPoint x="18" y="-3" as="offset" />
          </mxGeometry>
        </mxCell>
        <mxCell id="8iDffAJudvt3Z1gJP0nf-29" value="&lt;font face=&quot;Lucida Console&quot;&gt;key&lt;/font&gt;" style="text;html=1;align=center;verticalAlign=middle;resizable=0;points=[];autosize=1;strokeColor=none;fillColor=none;" vertex="1" parent="1">
          <mxGeometry x="740" y="260" width="40" height="20" as="geometry" />
        </mxCell>
        <mxCell id="8iDffAJudvt3Z1gJP0nf-32" value="" style="group" vertex="1" connectable="0" parent="1">
          <mxGeometry x="710" y="340" width="100" height="40" as="geometry" />
        </mxCell>
        <mxCell id="8iDffAJudvt3Z1gJP0nf-28" value="&lt;div align=&quot;left&quot;&gt;&lt;font face=&quot;Lucida Console&quot;&gt;start_stamp1&lt;/font&gt;&lt;/div&gt;" style="text;html=1;align=left;verticalAlign=middle;resizable=0;points=[];autosize=1;strokeColor=none;fillColor=none;" vertex="1" parent="8iDffAJudvt3Z1gJP0nf-32">
          <mxGeometry width="100" height="20" as="geometry" />
        </mxCell>
        <mxCell id="8iDffAJudvt3Z1gJP0nf-30" value="&lt;div align=&quot;left&quot;&gt;&lt;font face=&quot;Lucida Console&quot;&gt;end_stamp1&lt;/font&gt;&lt;/div&gt;" style="text;html=1;align=left;verticalAlign=middle;resizable=0;points=[];autosize=1;strokeColor=none;fillColor=none;" vertex="1" parent="8iDffAJudvt3Z1gJP0nf-32">
          <mxGeometry y="20" width="90" height="20" as="geometry" />
        </mxCell>
        <mxCell id="8iDffAJudvt3Z1gJP0nf-33" value="" style="group" vertex="1" connectable="0" parent="1">
          <mxGeometry x="100" y="300" width="40" height="60" as="geometry" />
        </mxCell>
        <mxCell id="8iDffAJudvt3Z1gJP0nf-24" value="" style="shape=curlyBracket;whiteSpace=wrap;html=1;rounded=1;" vertex="1" parent="8iDffAJudvt3Z1gJP0nf-33">
          <mxGeometry x="20" width="20" height="60" as="geometry" />
        </mxCell>
        <mxCell id="8iDffAJudvt3Z1gJP0nf-25" value="&lt;font face=&quot;Lucida Console&quot;&gt;&lt;b&gt;T&lt;/b&gt;&lt;/font&gt;" style="text;html=1;align=center;verticalAlign=middle;resizable=0;points=[];autosize=1;strokeColor=none;fillColor=none;" vertex="1" parent="8iDffAJudvt3Z1gJP0nf-33">
          <mxGeometry y="20" width="20" height="20" as="geometry" />
        </mxCell>
        <mxCell id="8iDffAJudvt3Z1gJP0nf-34" value="" style="group" vertex="1" connectable="0" parent="1">
          <mxGeometry x="100" y="360" width="40" height="60" as="geometry" />
        </mxCell>
        <mxCell id="8iDffAJudvt3Z1gJP0nf-35" value="" style="shape=curlyBracket;whiteSpace=wrap;html=1;rounded=1;" vertex="1" parent="8iDffAJudvt3Z1gJP0nf-34">
          <mxGeometry x="20" width="20" height="60" as="geometry" />
        </mxCell>
        <mxCell id="8iDffAJudvt3Z1gJP0nf-36" value="&lt;font face=&quot;Lucida Console&quot;&gt;&lt;b&gt;T&lt;/b&gt;&lt;/font&gt;" style="text;html=1;align=center;verticalAlign=middle;resizable=0;points=[];autosize=1;strokeColor=none;fillColor=none;" vertex="1" parent="8iDffAJudvt3Z1gJP0nf-34">
          <mxGeometry y="20" width="20" height="20" as="geometry" />
        </mxCell>
        <mxCell id="8iDffAJudvt3Z1gJP0nf-37" value="" style="endArrow=classic;html=1;exitX=1.083;exitY=1.042;exitDx=0;exitDy=0;exitPerimeter=0;" edge="1" parent="1">
          <mxGeometry width="50" height="50" relative="1" as="geometry">
            <mxPoint x="140.00000000000009" y="420" as="sourcePoint" />
            <mxPoint x="698.34" y="420.48000000000013" as="targetPoint" />
          </mxGeometry>
        </mxCell>
        <mxCell id="8iDffAJudvt3Z1gJP0nf-44" value="" style="group" vertex="1" connectable="0" parent="1">
          <mxGeometry x="710" y="400" width="100" height="40" as="geometry" />
        </mxCell>
        <mxCell id="8iDffAJudvt3Z1gJP0nf-45" value="&lt;div align=&quot;left&quot;&gt;&lt;font face=&quot;Lucida Console&quot;&gt;start_stamp1&lt;/font&gt;&lt;/div&gt;" style="text;html=1;align=left;verticalAlign=middle;resizable=0;points=[];autosize=1;strokeColor=none;fillColor=none;" vertex="1" parent="8iDffAJudvt3Z1gJP0nf-44">
          <mxGeometry width="100" height="20" as="geometry" />
        </mxCell>
        <mxCell id="8iDffAJudvt3Z1gJP0nf-46" value="&lt;div align=&quot;left&quot;&gt;&lt;font face=&quot;Lucida Console&quot;&gt;end_stamp2&lt;/font&gt;&lt;/div&gt;" style="text;html=1;align=left;verticalAlign=middle;resizable=0;points=[];autosize=1;strokeColor=none;fillColor=none;" vertex="1" parent="8iDffAJudvt3Z1gJP0nf-44">
          <mxGeometry y="20" width="90" height="20" as="geometry" />
        </mxCell>
        <mxCell id="8iDffAJudvt3Z1gJP0nf-49" value="" style="endArrow=classic;html=1;" edge="1" parent="1">
          <mxGeometry width="50" height="50" relative="1" as="geometry">
            <mxPoint x="460" y="389.58000000000004" as="sourcePoint" />
            <mxPoint x="700" y="390" as="targetPoint" />
          </mxGeometry>
        </mxCell>
        <mxCell id="8iDffAJudvt3Z1gJP0nf-50" value="&lt;font face=&quot;Lucida Console&quot;&gt;start_stamp&lt;/font&gt;请求" style="edgeLabel;html=1;align=center;verticalAlign=middle;resizable=0;points=[];" vertex="1" connectable="0" parent="8iDffAJudvt3Z1gJP0nf-49">
          <mxGeometry x="-0.7351" y="-2" relative="1" as="geometry">
            <mxPoint x="73" y="-3" as="offset" />
          </mxGeometry>
        </mxCell>
        <mxCell id="8iDffAJudvt3Z1gJP0nf-52" value="" style="endArrow=classic;html=1;" edge="1" parent="1">
          <mxGeometry width="50" height="50" relative="1" as="geometry">
            <mxPoint x="700" y="410" as="sourcePoint" />
            <mxPoint x="460" y="410" as="targetPoint" />
          </mxGeometry>
        </mxCell>
        <mxCell id="8iDffAJudvt3Z1gJP0nf-53" value="&lt;font face=&quot;Lucida Console&quot;&gt;2.&lt;/font&gt; &lt;font face=&quot;Lucida Console&quot;&gt;start_stamp2&lt;/font&gt;" style="text;html=1;align=center;verticalAlign=middle;resizable=0;points=[];autosize=1;strokeColor=none;fillColor=none;" vertex="1" parent="1">
          <mxGeometry x="340" y="400" width="120" height="20" as="geometry" />
        </mxCell>
        <mxCell id="8iDffAJudvt3Z1gJP0nf-64" value="上报&lt;font face=&quot;Lucida Console&quot;&gt;start_stamp1&lt;/font&gt;" style="edgeLabel;html=1;align=center;verticalAlign=middle;resizable=0;points=[];" vertex="1" connectable="0" parent="1">
          <mxGeometry x="213.00492634457026" y="419.9987150791582" as="geometry" />
        </mxCell>
        <mxCell id="8iDffAJudvt3Z1gJP0nf-65" value="" style="group" vertex="1" connectable="0" parent="1">
          <mxGeometry x="420" y="410" width="280" height="60" as="geometry" />
        </mxCell>
        <mxCell id="8iDffAJudvt3Z1gJP0nf-56" value="" style="group" vertex="1" connectable="0" parent="8iDffAJudvt3Z1gJP0nf-65">
          <mxGeometry width="40" height="60" as="geometry" />
        </mxCell>
        <mxCell id="8iDffAJudvt3Z1gJP0nf-57" value="" style="shape=curlyBracket;whiteSpace=wrap;html=1;rounded=1;" vertex="1" parent="8iDffAJudvt3Z1gJP0nf-56">
          <mxGeometry x="20" width="20" height="60" as="geometry" />
        </mxCell>
        <mxCell id="8iDffAJudvt3Z1gJP0nf-58" value="&lt;font face=&quot;Lucida Console&quot;&gt;&lt;b&gt;T&lt;/b&gt;&lt;/font&gt;" style="text;html=1;align=center;verticalAlign=middle;resizable=0;points=[];autosize=1;strokeColor=none;fillColor=none;" vertex="1" parent="8iDffAJudvt3Z1gJP0nf-56">
          <mxGeometry y="20" width="20" height="20" as="geometry" />
        </mxCell>
        <mxCell id="8iDffAJudvt3Z1gJP0nf-61" value="" style="endArrow=classic;html=1;" edge="1" parent="8iDffAJudvt3Z1gJP0nf-65">
          <mxGeometry width="50" height="50" relative="1" as="geometry">
            <mxPoint x="40" y="60" as="sourcePoint" />
            <mxPoint x="280" y="60" as="targetPoint" />
          </mxGeometry>
        </mxCell>
        <mxCell id="8iDffAJudvt3Z1gJP0nf-63" value="上报&lt;font face=&quot;Lucida Console&quot;&gt;start_stamp2&lt;/font&gt;" style="edgeLabel;html=1;align=center;verticalAlign=middle;resizable=0;points=[];" vertex="1" connectable="0" parent="8iDffAJudvt3Z1gJP0nf-61">
          <mxGeometry x="-0.0694" y="-3" relative="1" as="geometry">
            <mxPoint y="-3" as="offset" />
          </mxGeometry>
        </mxCell>
        <mxCell id="8iDffAJudvt3Z1gJP0nf-66" value="" style="group" vertex="1" connectable="0" parent="1">
          <mxGeometry x="420" y="470" width="280" height="60" as="geometry" />
        </mxCell>
        <mxCell id="8iDffAJudvt3Z1gJP0nf-67" value="" style="group" vertex="1" connectable="0" parent="8iDffAJudvt3Z1gJP0nf-66">
          <mxGeometry width="40" height="60" as="geometry" />
        </mxCell>
        <mxCell id="8iDffAJudvt3Z1gJP0nf-68" value="" style="shape=curlyBracket;whiteSpace=wrap;html=1;rounded=1;" vertex="1" parent="8iDffAJudvt3Z1gJP0nf-67">
          <mxGeometry x="20" width="20" height="60" as="geometry" />
        </mxCell>
        <mxCell id="8iDffAJudvt3Z1gJP0nf-69" value="&lt;font face=&quot;Lucida Console&quot;&gt;&lt;b&gt;T&lt;/b&gt;&lt;/font&gt;" style="text;html=1;align=center;verticalAlign=middle;resizable=0;points=[];autosize=1;strokeColor=none;fillColor=none;" vertex="1" parent="8iDffAJudvt3Z1gJP0nf-67">
          <mxGeometry y="20" width="20" height="20" as="geometry" />
        </mxCell>
        <mxCell id="8iDffAJudvt3Z1gJP0nf-70" value="" style="endArrow=classic;html=1;" edge="1" parent="8iDffAJudvt3Z1gJP0nf-66">
          <mxGeometry width="50" height="50" relative="1" as="geometry">
            <mxPoint x="40" y="60" as="sourcePoint" />
            <mxPoint x="280" y="60" as="targetPoint" />
          </mxGeometry>
        </mxCell>
        <mxCell id="8iDffAJudvt3Z1gJP0nf-71" value="上报&lt;font face=&quot;Lucida Console&quot;&gt;start_stamp2&lt;/font&gt;" style="edgeLabel;html=1;align=center;verticalAlign=middle;resizable=0;points=[];" vertex="1" connectable="0" parent="8iDffAJudvt3Z1gJP0nf-70">
          <mxGeometry x="-0.0694" y="-3" relative="1" as="geometry">
            <mxPoint y="-3" as="offset" />
          </mxGeometry>
        </mxCell>
        <mxCell id="8iDffAJudvt3Z1gJP0nf-72" value="" style="group" vertex="1" connectable="0" parent="1">
          <mxGeometry x="420" y="530" width="280" height="60" as="geometry" />
        </mxCell>
        <mxCell id="8iDffAJudvt3Z1gJP0nf-73" value="" style="group" vertex="1" connectable="0" parent="8iDffAJudvt3Z1gJP0nf-72">
          <mxGeometry width="40" height="60" as="geometry" />
        </mxCell>
        <mxCell id="8iDffAJudvt3Z1gJP0nf-74" value="" style="shape=curlyBracket;whiteSpace=wrap;html=1;rounded=1;" vertex="1" parent="8iDffAJudvt3Z1gJP0nf-73">
          <mxGeometry x="20" width="20" height="60" as="geometry" />
        </mxCell>
        <mxCell id="8iDffAJudvt3Z1gJP0nf-75" value="&lt;font face=&quot;Lucida Console&quot;&gt;&lt;b&gt;T&lt;/b&gt;&lt;/font&gt;" style="text;html=1;align=center;verticalAlign=middle;resizable=0;points=[];autosize=1;strokeColor=none;fillColor=none;" vertex="1" parent="8iDffAJudvt3Z1gJP0nf-73">
          <mxGeometry y="20" width="20" height="20" as="geometry" />
        </mxCell>
        <mxCell id="8iDffAJudvt3Z1gJP0nf-76" value="" style="endArrow=classic;html=1;" edge="1" parent="8iDffAJudvt3Z1gJP0nf-72">
          <mxGeometry width="50" height="50" relative="1" as="geometry">
            <mxPoint x="40" y="60" as="sourcePoint" />
            <mxPoint x="280" y="60" as="targetPoint" />
          </mxGeometry>
        </mxCell>
        <mxCell id="8iDffAJudvt3Z1gJP0nf-77" value="上报&lt;font face=&quot;Lucida Console&quot;&gt;start_stamp2&lt;/font&gt;" style="edgeLabel;html=1;align=center;verticalAlign=middle;resizable=0;points=[];" vertex="1" connectable="0" parent="8iDffAJudvt3Z1gJP0nf-76">
          <mxGeometry x="-0.0694" y="-3" relative="1" as="geometry">
            <mxPoint y="-3" as="offset" />
          </mxGeometry>
        </mxCell>
        <mxCell id="8iDffAJudvt3Z1gJP0nf-47" value="" style="endArrow=classic;html=1;" edge="1" parent="8iDffAJudvt3Z1gJP0nf-72">
          <mxGeometry width="50" height="50" relative="1" as="geometry">
            <mxPoint x="-120" y="36" as="sourcePoint" />
            <mxPoint x="280" y="36" as="targetPoint" />
          </mxGeometry>
        </mxCell>
        <mxCell id="8iDffAJudvt3Z1gJP0nf-48" value="&lt;font face=&quot;Lucida Console&quot;&gt;start_stamp&lt;/font&gt;请求" style="edgeLabel;html=1;align=center;verticalAlign=middle;resizable=0;points=[];" vertex="1" connectable="0" parent="8iDffAJudvt3Z1gJP0nf-47">
          <mxGeometry x="-0.7351" y="-2" relative="1" as="geometry">
            <mxPoint x="25" y="-3" as="offset" />
          </mxGeometry>
        </mxCell>
        <mxCell id="8iDffAJudvt3Z1gJP0nf-78" value="" style="group" vertex="1" connectable="0" parent="1">
          <mxGeometry x="420" y="590" width="280" height="60" as="geometry" />
        </mxCell>
        <mxCell id="8iDffAJudvt3Z1gJP0nf-79" value="" style="group" vertex="1" connectable="0" parent="8iDffAJudvt3Z1gJP0nf-78">
          <mxGeometry width="40" height="60" as="geometry" />
        </mxCell>
        <mxCell id="8iDffAJudvt3Z1gJP0nf-80" value="" style="shape=curlyBracket;whiteSpace=wrap;html=1;rounded=1;" vertex="1" parent="8iDffAJudvt3Z1gJP0nf-79">
          <mxGeometry x="20" width="20" height="60" as="geometry" />
        </mxCell>
        <mxCell id="8iDffAJudvt3Z1gJP0nf-81" value="&lt;font face=&quot;Lucida Console&quot;&gt;&lt;b&gt;T&lt;/b&gt;&lt;/font&gt;" style="text;html=1;align=center;verticalAlign=middle;resizable=0;points=[];autosize=1;strokeColor=none;fillColor=none;" vertex="1" parent="8iDffAJudvt3Z1gJP0nf-79">
          <mxGeometry y="20" width="20" height="20" as="geometry" />
        </mxCell>
        <mxCell id="8iDffAJudvt3Z1gJP0nf-82" value="" style="endArrow=classic;html=1;" edge="1" parent="8iDffAJudvt3Z1gJP0nf-78">
          <mxGeometry width="50" height="50" relative="1" as="geometry">
            <mxPoint x="40" y="60" as="sourcePoint" />
            <mxPoint x="280" y="60" as="targetPoint" />
          </mxGeometry>
        </mxCell>
        <mxCell id="8iDffAJudvt3Z1gJP0nf-83" value="上报&lt;font face=&quot;Lucida Console&quot;&gt;start_stamp2&lt;/font&gt;" style="edgeLabel;html=1;align=center;verticalAlign=middle;resizable=0;points=[];" vertex="1" connectable="0" parent="8iDffAJudvt3Z1gJP0nf-82">
          <mxGeometry x="-0.0694" y="-3" relative="1" as="geometry">
            <mxPoint y="-3" as="offset" />
          </mxGeometry>
        </mxCell>
        <mxCell id="8iDffAJudvt3Z1gJP0nf-85" value="" style="group" vertex="1" connectable="0" parent="1">
          <mxGeometry x="710" y="450" width="100" height="40" as="geometry" />
        </mxCell>
        <mxCell id="8iDffAJudvt3Z1gJP0nf-86" value="&lt;div align=&quot;left&quot;&gt;&lt;font face=&quot;Lucida Console&quot;&gt;start_stamp2&lt;/font&gt;&lt;/div&gt;" style="text;html=1;align=left;verticalAlign=middle;resizable=0;points=[];autosize=1;strokeColor=none;fillColor=none;" vertex="1" parent="8iDffAJudvt3Z1gJP0nf-85">
          <mxGeometry width="100" height="20" as="geometry" />
        </mxCell>
        <mxCell id="8iDffAJudvt3Z1gJP0nf-87" value="&lt;div align=&quot;left&quot;&gt;&lt;font face=&quot;Lucida Console&quot;&gt;end_stamp1&lt;/font&gt;&lt;/div&gt;" style="text;html=1;align=left;verticalAlign=middle;resizable=0;points=[];autosize=1;strokeColor=none;fillColor=none;" vertex="1" parent="8iDffAJudvt3Z1gJP0nf-85">
          <mxGeometry y="20" width="90" height="20" as="geometry" />
        </mxCell>
        <mxCell id="8iDffAJudvt3Z1gJP0nf-88" value="" style="group" vertex="1" connectable="0" parent="1">
          <mxGeometry x="710" y="510" width="100" height="40" as="geometry" />
        </mxCell>
        <mxCell id="8iDffAJudvt3Z1gJP0nf-89" value="&lt;div align=&quot;left&quot;&gt;&lt;font face=&quot;Lucida Console&quot;&gt;start_stamp2&lt;/font&gt;&lt;/div&gt;" style="text;html=1;align=left;verticalAlign=middle;resizable=0;points=[];autosize=1;strokeColor=none;fillColor=none;" vertex="1" parent="8iDffAJudvt3Z1gJP0nf-88">
          <mxGeometry width="100" height="20" as="geometry" />
        </mxCell>
        <mxCell id="8iDffAJudvt3Z1gJP0nf-90" value="&lt;div align=&quot;left&quot;&gt;&lt;font face=&quot;Lucida Console&quot;&gt;end_stamp2&lt;/font&gt;&lt;/div&gt;" style="text;html=1;align=left;verticalAlign=middle;resizable=0;points=[];autosize=1;strokeColor=none;fillColor=none;" vertex="1" parent="8iDffAJudvt3Z1gJP0nf-88">
          <mxGeometry y="20" width="90" height="20" as="geometry" />
        </mxCell>
        <mxCell id="8iDffAJudvt3Z1gJP0nf-91" value="" style="group" vertex="1" connectable="0" parent="1">
          <mxGeometry x="710" y="570" width="100" height="40" as="geometry" />
        </mxCell>
        <mxCell id="8iDffAJudvt3Z1gJP0nf-92" value="&lt;div align=&quot;left&quot;&gt;&lt;font face=&quot;Lucida Console&quot;&gt;start_stamp2&lt;/font&gt;&lt;/div&gt;" style="text;html=1;align=left;verticalAlign=middle;resizable=0;points=[];autosize=1;strokeColor=none;fillColor=none;" vertex="1" parent="8iDffAJudvt3Z1gJP0nf-91">
          <mxGeometry width="100" height="20" as="geometry" />
        </mxCell>
        <mxCell id="8iDffAJudvt3Z1gJP0nf-93" value="&lt;div align=&quot;left&quot;&gt;&lt;font face=&quot;Lucida Console&quot;&gt;end_stamp3&lt;/font&gt;&lt;/div&gt;" style="text;html=1;align=left;verticalAlign=middle;resizable=0;points=[];autosize=1;strokeColor=none;fillColor=none;" vertex="1" parent="8iDffAJudvt3Z1gJP0nf-91">
          <mxGeometry y="20" width="90" height="20" as="geometry" />
        </mxCell>
        <mxCell id="8iDffAJudvt3Z1gJP0nf-94" value="" style="group" vertex="1" connectable="0" parent="1">
          <mxGeometry x="710" y="630" width="100" height="40" as="geometry" />
        </mxCell>
        <mxCell id="8iDffAJudvt3Z1gJP0nf-95" value="&lt;div align=&quot;left&quot;&gt;&lt;font face=&quot;Lucida Console&quot;&gt;start_stamp2&lt;/font&gt;&lt;/div&gt;" style="text;html=1;align=left;verticalAlign=middle;resizable=0;points=[];autosize=1;strokeColor=none;fillColor=none;" vertex="1" parent="8iDffAJudvt3Z1gJP0nf-94">
          <mxGeometry width="100" height="20" as="geometry" />
        </mxCell>
        <mxCell id="8iDffAJudvt3Z1gJP0nf-96" value="&lt;div align=&quot;left&quot;&gt;&lt;font face=&quot;Lucida Console&quot;&gt;end_stamp4&lt;/font&gt;&lt;/div&gt;" style="text;html=1;align=left;verticalAlign=middle;resizable=0;points=[];autosize=1;strokeColor=none;fillColor=none;" vertex="1" parent="8iDffAJudvt3Z1gJP0nf-94">
          <mxGeometry y="20" width="90" height="20" as="geometry" />
        </mxCell>
      </root>
    </mxGraphModel>
  </diagram>
</mxfile>
